<svg width="152" height="29" viewBox="0 0 152 29" fill="none" xmlns="http://www.w3.org/2000/svg">
<path d="M21.8608 0L0 12.3217V17.5585L21.8608 5.23839V0Z" fill="#5D6FD1"/>
<path d="M21.8608 15.6783V11.3624L9.23507 18.4779V18.4794L0 23.6825V28L9.23507 22.7954L21.8608 15.6783Z" fill="#5D6FD1"/>
<path d="M9.23486 13.0892V17.5571V17.5586L21.8606 10.4447L31.0984 5.23849V0.767517L21.8606 5.97368L9.23486 13.0892Z" fill="#5D6FD1"/>
<path d="M31.0984 11.2089L21.8606 16.4152L9.23486 23.529V28L31.0984 15.6784V11.2089Z" fill="#5D6FD1"/>
<path d="M140.2 28.48C138.009 28.48 136.082 28.0266 134.418 27.12C132.782 26.1866 131.506 24.88 130.591 23.2C129.704 21.52 129.26 19.56 129.26 17.32C129.26 15.0533 129.704 13.0933 130.591 11.44C131.506 9.75997 132.782 8.46664 134.418 7.55997C136.082 6.62664 138.009 6.15997 140.2 6.15997C142.391 6.15997 144.304 6.62664 145.94 7.55997C147.576 8.46664 148.838 9.75997 149.725 11.44C150.64 13.0933 151.098 15.0533 151.098 17.32C151.098 19.56 150.64 21.52 149.725 23.2C148.838 24.88 147.576 26.1866 145.94 27.12C144.304 28.0266 142.391 28.48 140.2 28.48ZM140.2 24.32C141.919 24.32 143.236 23.7066 144.152 22.48C145.094 21.2533 145.566 19.5333 145.566 17.32C145.566 15.1333 145.094 13.4266 144.152 12.2C143.236 10.9466 141.919 10.32 140.2 10.32C138.481 10.32 137.15 10.9466 136.207 12.2C135.264 13.4266 134.792 15.1333 134.792 17.32C134.792 19.5333 135.264 21.2533 136.207 22.48C137.15 23.7066 138.481 24.32 140.2 24.32Z" fill="#212834"/>
<path d="M117.691 28V6.64001H122.682L122.89 12.56L122.433 12.48C122.766 10.4267 123.39 8.94668 124.305 8.04001C125.247 7.10668 126.523 6.64001 128.131 6.64001H130.17V11.04H128.09C126.953 11.04 126.01 11.2 125.261 11.52C124.513 11.84 123.944 12.3467 123.556 13.04C123.195 13.7067 123.015 14.5867 123.015 15.68V28H117.691Z" fill="#212834"/>
<path d="M102.586 28.48C100.257 28.48 98.3852 27.9733 96.971 26.96C95.5567 25.92 94.8496 24.48 94.8496 22.64C94.8496 20.8 95.4458 19.36 96.6382 18.32C97.8306 17.28 99.647 16.5333 102.087 16.08L109.45 14.68C109.45 13.16 109.089 12.0266 108.368 11.28C107.647 10.5066 106.58 10.12 105.165 10.12C103.89 10.12 102.878 10.4133 102.129 11C101.408 11.56 100.909 12.3733 100.631 13.44L95.224 13.2C95.6677 10.9333 96.7491 9.19997 98.4684 7.99997C100.188 6.77331 102.42 6.15997 105.165 6.15997C108.327 6.15997 110.711 6.93331 112.32 8.47997C113.956 9.99997 114.774 12.1866 114.774 15.04V22.8C114.774 23.36 114.871 23.7466 115.065 23.96C115.287 24.1733 115.606 24.28 116.022 24.28H116.729V28C116.563 28.0533 116.285 28.0933 115.897 28.12C115.537 28.1466 115.162 28.16 114.774 28.16C113.859 28.16 113.041 28.0266 112.32 27.76C111.599 27.4666 111.044 26.9733 110.656 26.28C110.268 25.56 110.074 24.5866 110.074 23.36L110.531 23.68C110.309 24.6133 109.824 25.4533 109.075 26.2C108.354 26.92 107.439 27.48 106.33 27.88C105.221 28.28 103.973 28.48 102.586 28.48ZM103.668 24.76C104.86 24.76 105.886 24.5333 106.746 24.08C107.606 23.6266 108.271 23 108.743 22.2C109.214 21.4 109.45 20.4533 109.45 19.36V18.16L103.71 19.28C102.517 19.52 101.657 19.88 101.131 20.36C100.631 20.8133 100.382 21.4133 100.382 22.16C100.382 22.9866 100.659 23.6266 101.214 24.08C101.796 24.5333 102.614 24.76 103.668 24.76Z" fill="#212834"/>
<path d="M84.237 28.48C82.0186 28.48 80.0913 28.0266 78.4552 27.12C76.8191 26.1866 75.5435 24.88 74.6284 23.2C73.741 21.52 73.2974 19.56 73.2974 17.32C73.2974 15.08 73.741 13.1333 74.6284 11.48C75.5435 9.79997 76.8191 8.4933 78.4552 7.55997C80.0913 6.62664 82.0186 6.15997 84.237 6.15997C86.1227 6.15997 87.8004 6.47997 89.2701 7.11997C90.7398 7.75997 91.9323 8.67997 92.8474 9.87997C93.7902 11.0533 94.3725 12.4933 94.5944 14.2L89.1037 14.48C88.8819 13.12 88.3273 12.0933 87.4399 11.4C86.5803 10.68 85.5126 10.32 84.237 10.32C82.5178 10.32 81.1867 10.9466 80.2439 12.2C79.301 13.4266 78.8296 15.1333 78.8296 17.32C78.8296 19.5333 79.301 21.2533 80.2439 22.48C81.1867 23.7066 82.5178 24.32 84.237 24.32C85.5404 24.32 86.6219 23.96 87.4815 23.24C88.3689 22.52 88.9096 21.4 89.1037 19.88L94.5944 20.12C94.3725 21.8266 93.8041 23.3066 92.889 24.56C91.9738 25.8133 90.7814 26.7866 89.3117 27.48C87.842 28.1466 86.1504 28.48 84.237 28.48Z" fill="#212834"/>
<path d="M62.0764 28.48C59.8857 28.48 57.9584 28.0266 56.2946 27.12C54.6585 26.1866 53.3829 24.88 52.4678 23.2C51.5804 21.52 51.1367 19.56 51.1367 17.32C51.1367 15.0533 51.5804 13.0933 52.4678 11.44C53.3829 9.75997 54.6585 8.46664 56.2946 7.55997C57.9584 6.62664 59.8857 6.15997 62.0764 6.15997C64.2671 6.15997 66.1805 6.62664 67.8166 7.55997C69.4527 8.46664 70.7144 9.75997 71.6018 11.44C72.5169 13.0933 72.9745 15.0533 72.9745 17.32C72.9745 19.56 72.5169 21.52 71.6018 23.2C70.7144 24.88 69.4527 26.1866 67.8166 27.12C66.1805 28.0266 64.2671 28.48 62.0764 28.48ZM62.0764 24.32C63.7957 24.32 65.1129 23.7066 66.028 22.48C66.9708 21.2533 67.4422 19.5333 67.4422 17.32C67.4422 15.1333 66.9708 13.4266 66.028 12.2C65.1129 10.9466 63.7957 10.32 62.0764 10.32C60.3571 10.32 59.026 10.9466 58.0832 12.2C57.1404 13.4266 56.669 15.1333 56.669 17.32C56.669 19.5333 57.1404 21.2533 58.0832 22.48C59.026 23.7066 60.3571 24.32 62.0764 24.32Z" fill="#212834"/>
<g clip-path="url(#clip0_23_413)">
<path d="M48.4224 28.4C46.814 28.4 45.5246 28 44.554 27.2C43.5834 26.4 43.0981 25.12 43.0981 23.36V0H48.4224V22.84C48.4224 23.3733 48.5611 23.7733 48.8384 24.04C49.1434 24.3067 49.5593 24.44 50.0862 24.44L49.2543 24.24L48.4224 22.84V28.4Z" fill="#212834"/>
</g>
<defs>
<clipPath id="clip0_23_413">
<rect width="5.3" height="28.5" fill="white" transform="translate(43.0981)"/>
</clipPath>
</defs>
</svg>
